PathFileType	4	(X/Y/Z)	/Users/niels/Desktop/University/Third Semester/Perception and Action/Exam/Gymnastics Motion Tracking/Code for Gym Tracking/Analyzed Data/Webcam_Backflip/id1_7_trajectory_Sports2D/id1_7_trajectory_Sports2D_px_person00.trc
DataRate	CameraRate	NumFrames	NumMarkers	Units	OrigDataRate	OrigDataStartFrame	OrigNumFrames
29.71698113207547	29.71698113207547	11	22	m	29.71698113207547	53	106
Frame#	Time	Hip			RHip			RKnee			RAnkle			RBigToe			RSmallToe			RHeel			LHip			LKnee			LAnkle			LBigToe			LSmallToe			LHeel			Neck			Head			Nose			RShoulder			RElbow			RWrist			LShoulder			LElbow			LWrist		
		X1	Y1	Z1	X2	Y2	Z2	X3	Y3	Z3	X4	Y4	Z4	X5	Y5	Z5	X6	Y6	Z6	X7	Y7	Z7	X8	Y8	Z8	X9	Y9	Z9	X10	Y10	Z10	X11	Y11	Z11	X12	Y12	Z12	X13	Y13	Z13	X14	Y14	Z14	X15	Y15	Z15	X16	Y16	Z16	X17	Y17	Z17	X18	Y18	Z18	X19	Y19	Z19	X20	Y20	Z20	X21	Y21	Z21	X22	Y22	Z22
53	1.7834920634920632	0.9581732965801356	-0.6539341698244626	0.0	0.9397215429672452	-0.6560333769587645	0.0	0.9474225972002207	-0.7714609517391289	0.0	0.9192146919441033	-0.8836801821581696	0.0	0.9494264994706643	-0.8997589118350321	0.0	0.9305309696206769	-0.902057797181873	0.0	0.9105071822435339	-0.8947437924476238	0.0	0.9793926892257893	-0.6535945840214433	0.0	1.0332526849456904	-0.7529865744274243	0.0	1.0151986554695958	-0.8584222912431766	0.0	1.0419227960494186	-0.8862896479367718	0.0	1.0436368420282092	-0.8818837306940098	0.0	1.0037367034748088	-0.8705362620286099	0.0	0.9560890300125184	-0.48406135921648513	0.0	0.971849303155078	-0.4147641882523872	0.0	0.9828573600183718	-0.44901294554912224	0.0	0.9319687062549663	-0.5039885919901177	0.0	0.9203178549824987	-0.5390428772801741	0.0	0.921834075103163	-0.4846058369342093	0.0	0.9684885525787378	-0.5041018246307185	0.0	0.9573841335897683	-0.5460461981351908	0.0	0.9792237360754347	-0.5353088955605078	0.0
54	1.817142857142857	0.9558834487644337	-0.6613703964262083	0.0	0.9372769015156357	-0.6629267697306479	0.0	0.9469793441662231	-0.7782039370959537	0.0	0.918891594906997	-0.889868881647876	0.0	0.9483973139140067	-0.9044634868245123	0.0	0.9289033967856147	-0.9074955011358887	0.0	0.9101758155507507	-0.9009503809142716	0.0	0.9768404768916931	-0.661216098575379	0.0	1.029264850539963	-0.7621378191202485	0.0	1.012763786312352	-0.8665210519160621	0.0	1.0441025728493731	-0.8906210050613925	0.0	1.0442755036594598	-0.8864489818024291	0.0	1.0015194731957986	-0.879630018339996	0.0	0.95714405495181	-0.491219075935177	0.0	0.9757588231563044	-0.4217989753901129	0.0	0.9836252126981041	-0.4570612024329642	0.0	0.9309136617364041	-0.5119638988965038	0.0	0.9184173859062565	-0.5678305982686017	0.0	0.9254326070835708	-0.5220103829677821	0.0	0.9693995859586602	-0.512905572305177	0.0	0.9556110529647286	-0.5713729011982948	0.0	0.9825350628415741	-0.5822025702351301	0.0
55	1.8507936507936507	0.9540519327170204	-0.6638792267373678	0.0	0.9351434976824097	-0.6651907971134112	0.0	0.9469564348148617	-0.7802492257503001	0.0	0.9189733188121694	-0.8913886352311492	0.0	0.9481566537978555	-0.905617272969294	0.0	0.9291120409761106	-0.9092353813120614	0.0	0.910015234821586	-0.9025615461778768	0.0	0.9748544265309614	-0.663922261362589	0.0	1.0254159402657061	-0.7662313134091912	0.0	1.0109908448111413	-0.8702511511946871	0.0	1.045959616215101	-0.8911432872673002	0.0	1.044869696598771	-0.8871358998886313	0.0	1.0000667545231356	-0.8840921440866129	0.0	0.9585869121848829	-0.4940542461118899	0.0	0.9787640859000478	-0.42524226150349664	0.0	0.9842323231933292	-0.4607909767021203	0.0	0.930037844134783	-0.5156618897609541	0.0	0.9167887773437698	-0.5873087338348004	0.0	0.9302390091697965	-0.5579750903357868	0.0	0.9717135075028666	-0.5167093854027813	0.0	0.9563923340663693	-0.5869587205735153	0.0	0.9858210409319509	-0.6176535251091841	0.0
56	1.8844444444444441	0.9528904595689758	-0.6615856949676258	0.0	0.9334866767661336	-0.6629892999343816	0.0	0.9469478311064559	-0.7775834956161981	0.0	0.9191748402385801	-0.8882925204936744	0.0	0.9486387207157053	-0.903154906064926	0.0	0.9309241444148629	-0.9072040323217971	0.0	0.9098067761285237	-0.8997902727437731	0.0	0.9736908252306412	-0.6618959974942149	0.0	1.0219321158630472	-0.7652212962097675	0.0	1.0098523235744659	-0.8692236829353122	0.0	1.0472436443770559	-0.8879584667766777	0.0	1.0453483307467484	-0.8840085759450558	0.0	0.9993184644372463	-0.8836296663864469	0.0	0.9603194510915004	-0.4923354424727187	0.0	0.980923673778779	-0.42434623709714636	0.0	0.984758437760244	-0.4598717534890925	0.0	0.9293840072753932	-0.5146749105904277	0.0	0.9151673030539896	-0.5961003903596372	0.0	0.9346515265878367	-0.5889286112011076	0.0	0.9753390252493557	-0.5153076002029274	0.0	0.959557793149902	-0.5929255594741575	0.0	0.9890692515404003	-0.6389776757809619	0.0
57	1.9180952380952379	0.9524037032395866	-0.6550151674673674	0.0	0.9323612262872778	-0.656826348531843	0.0	0.9466083074169784	-0.770608881043348	0.0	0.9192779587147727	-0.8810244236872327	0.0	0.9495861808734161	-0.8973104899972659	0.0	0.9334666465234759	-0.9015980598684397	0.0	0.9094296609201252	-0.8932158965885799	0.0	0.9733394762959833	-0.6556677224786297	0.0	1.0189060429630457	-0.7596496608510158	0.0	1.0092779059639407	-0.8636054621459273	0.0	1.0479639639205667	-0.8815162518551277	0.0	1.0457922811582154	-0.8774722306992527	0.0	0.9991796989408829	-0.8786282062893698	0.0	0.9622200017001201	-0.4861780962827087	0.0	0.9824652208219766	-0.4187626682932071	0.0	0.9852512860289188	-0.4543371845962922	0.0	0.9289966723172389	-0.5089838314884766	0.0	0.9133106272185594	-0.594909794832297	0.0	0.9367371871219915	-0.6110967491305239	0.0	0.979756728732566	-0.5090620019277896	0.0	0.9642020045314579	-0.5903884718551572	0.0	0.9924792792308906	-0.6464202442452047	0.0
58	1.9517460317460316	0.9524033235087991	-0.6449931231668543	0.0	0.9317048618695398	-0.6474067229790701	0.0	0.94580408026335	-0.7600717006781295	0.0	0.9192011815574797	-0.8703702788356046	0.0	0.950667057438746	-0.88864589117626	0.0	0.9358464698013199	-0.8929010027107148	0.0	0.9088734052954951	-0.8836178514235895	0.0	0.9735957203285792	-0.6459410200944885	0.0	1.0162825278540206	-0.7504727683336551	0.0	1.0091168014369356	-0.8541883147701111	0.0	1.0480727523208586	-0.8725750075535055	0.0	1.0461662406915009	-0.8682922219608126	0.0	0.9994806268703058	-0.869969210847277	0.0	0.964196608661479	-0.4761592596524725	0.0	0.9836453666602758	-0.408803054029888	0.0	0.9857052635598145	-0.4446898996287346	0.0	0.9288398081778403	-0.49917924805521724	0.0	0.9112202763886699	-0.5860089475991357	0.0	0.9357094033485015	-0.6230809120553887	0.0	0.9844130400153654	-0.49885200276190816	0.0	0.9693473468311901	-0.5810125570695777	0.0	0.9961671440223662	-0.6420887099422193	0.0
59	1.985396825396825	0.9526928875115789	-0.6325483015371006	0.0	0.9314421279633942	-0.6355416321341747	0.0	0.9446314114802253	-0.7470141527399244	0.0	0.9190044847840979	-0.8574604211218557	0.0	0.9516296330996795	-0.8781006973040656	0.0	0.9375522295374387	-0.8820141490175748	0.0	0.9082357913390152	-0.8719751676969041	0.0	0.9742301000113086	-0.6335529881591553	0.0	1.0138793016890568	-0.7388836545779112	0.0	1.009166366480477	-0.8423019973657874	0.0	1.0473126154705645	-0.8622066579338321	0.0	1.0462151467042005	-0.8576211680642744	0.0	1.0000084794890642	-0.8588867249687714	0.0	0.9661705393772405	-0.4632997298692055	0.0	0.9846485450561394	-0.3954461909379612	0.0	0.9860415777982723	-0.4318852802240758	0.0	0.9287995443016303	-0.48642026423040086	0.0	0.9091886485948543	-0.5723057272118273	0.0	0.9325134345771233	-0.6260711305949972	0.0	0.9889498799866584	-0.48592587008127325	0.0	0.9744322860832929	-0.566837653537867	0.0	1.000047294269603	-0.629068467722992	0.0
60	2.019047619047619	0.9532338902705815	-0.6188320285635264	0.0	0.9315436694842422	-0.6221370036728531	0.0	0.9433385285866219	-0.7327214439779235	0.0	0.91882156691738	-0.8436789120554997	0.0	0.9523609417408548	-0.8668512351083992	0.0	0.9384745414363066	-0.8701755076997434	0.0	0.9077117566151339	-0.8594272897626998	0.0	0.9751414910603549	-0.6195454145895314	0.0	1.0114783209614722	-0.7261286160069876	0.0	1.0092169057599751	-0.8295480420834449	0.0	1.0452179008941584	-0.8516827630978462	0.0	1.0454970954921192	-0.8468656145723692	0.0	1.0005384541675215	-0.8467792213231006	0.0	0.9680398780597362	-0.4489218500872976	0.0	0.9855240832115264	-0.38016766719640577	0.0	0.9861627920536977	-0.41722907503736856	0.0	0.9287459982621844	-0.4721939208032118	0.0	0.9075464772652675	-0.5564940365416707	0.0	0.9286532863388804	-0.6221535600369064	0.0	0.9931960319895148	-0.4716960209708431	0.0	0.9794381730058953	-0.5501268209095166	0.0	1.0039384140133416	-0.6106674953729199	0.0
61	2.0526984126984122	0.9540929730338086	-0.6050309036853898	0.0	0.9319754397427507	-0.6082089422090435	0.0	0.9422011810051651	-0.7185661592360434	0.0	0.9187871493094873	-0.8304199212369205	0.0	0.9528686608520097	-0.856038127539452	0.0	0.9387572234321994	-0.8586638011316441	0.0	0.9075217285965255	-0.8471118570882348	0.0	0.976328955115807	-0.6051439247209431	0.0	1.0089327339948695	-0.7133722897443306	0.0	1.0090868610022377	-0.8174813901455991	0.0	1.0412858629472177	-0.8422181650903721	0.0	1.0435334909534615	-0.8373784007163728	0.0	1.0008777367648796	-0.8350137199626859	0.0	0.9696946068225002	-0.43445168452394617	0.0	0.9862041442926298	-0.3646261398194732	0.0	0.9860427692381573	-0.40222082327107583	0.0	0.9286050010089739	-0.45801890326391353	0.0	0.9063838788697302	-0.540631607407192	0.0	0.9251115435913615	-0.6134200186088162	0.0	0.9970779810555552	-0.45753186156262093	0.0	0.9846698911598413	-0.5330602391843512	0.0	1.0077447659509922	-0.5898581554505058	0.0
62	2.086349206349206	0.95528985811075	-0.5922529598348997	0.0	0.9326601053474798	-0.594832259950156	0.0	0.9413946460804479	-0.7057813424433197	0.0	0.919000617054079	-0.8188290744599924	0.0	0.9532437216795434	-0.8465651621858107	0.0	0.9386519592236461	-0.8485250362503829	0.0	0.9078137321783656	-0.836010231669849	0.0	0.9777592575584966	-0.5915713688456754	0.0	1.0062136051273682	-0.7016622168275908	0.0	1.0086491082208386	-0.8073658011587237	0.0	1.035361966180823	-0.8347306427736625	0.0	1.0401138473611455	-0.8301466403177777	0.0	1.0009254404924475	-0.8248093969820501	0.0	0.9710619765822744	-0.42121695679045607	0.0	0.9866092176589059	-0.350318854380184	0.0	0.9857554897235195	-0.3883363331659518	0.0	0.9283842592829866	-0.44517154059663977	0.0	0.9055076367649794	-0.5261398531111365	0.0	0.9223321606531755	-0.6019962513497409	0.0	1.0005670044318815	-0.44457992760584647	0.0	0.9904426656318731	-0.5173393849411752	0.0	1.01152068629389	-0.5690018468889836	0.0
63	2.1199999999999997	0.9567571185917518	-0.5814457253631967	0.0	0.933527306785769	-0.5830720782212814	0.0	0.9409446876705206	-0.6953141035295208	0.0	0.9195032971642443	-0.8097132811537936	0.0	0.9536393367395911	-0.8390424746817959	0.0	0.9384581110065083	-0.8404856771476935	0.0	0.9086180471208376	-0.8269156499616599	0.0	0.9793398054645966	-0.5799093391562645	0.0	1.003377274312922	-0.6919313046314064	0.0	1.0078530879087182	-0.8000624588316766	0.0	1.0280438143024362	-0.8297302344307902	0.0	1.0355910115139315	-0.8256265735762776	0.0	1.000675023558507	-0.8171626471843336	0.0	0.9721311065434505	-0.41028070177475495	0.0	0.9867239095633002	-0.33837756525067325	0.0	0.9854249009379322	-0.3767888431549223	0.0	0.9281592289656698	-0.4345613678207854	0.0	0.9046004738463329	-0.513979141491002	0.0	0.9204698509568281	-0.5899550335708826	0.0	1.0036625850231629	-0.43368443948742513	0.0	0.9968747809369097	-0.5040206202278418	0.0	1.0154328600096905	-0.5498519714835809	0.0
